<?xml version="1.0" encoding="utf-8"?>
<!-- Generator: Adobe Illustrator 24.0.3, SVG Export Plug-In . SVG Version: 6.00 Build 0)  -->
<svg version="1.1" id="Layer_1" xmlns="http://www.w3.org/2000/svg" xmlns:xlink="http://www.w3.org/1999/xlink" x="0px" y="0px"
	 viewBox="0 0 488.06 190.14" style="enable-background:new 0 0 488.06 190.14;" xml:space="preserve">
<style type="text/css">
	.st0{fill:#2DB566;}
	.st1{fill:#FFFFFF;}
	.st2{fill:#727373;}
	.st3{fill:#FFFFFF;stroke:#737373;stroke-width:0.2;stroke-miterlimit:10;}
</style>
<g>
	<rect y="0.47" class="st0" width="180.24" height="156.76"/>
	<path class="st0" d="M48.13,135.56c0,0,5.84,4.1,5.84-9.39l0.73,13.35L48.13,135.56z"/>
	<rect x="178.36" y="0.36" class="st1" width="309.7" height="157.02"/>
	<g>
		<path class="st2" d="M212.26,129.16c-5.76,0-11.51-4.32-11.51-13.07V68.84c0-8.63,5.88-13.07,11.63-13.07
			c5.76,0,11.51,4.32,11.51,13.07v14.15h-3.36V68.72c0-6.36-4.08-9.59-8.27-9.59c-4.08,0-8.15,3.24-8.15,9.59v47.49
			c0,6.36,4.08,9.59,8.15,9.59c4.2,0,8.27-3.24,8.27-9.59v-14.15h3.36v14.03C223.89,124.72,218.02,129.16,212.26,129.16z"/>
		<path class="st2" d="M255.19,125.32c-2.28,2.64-5.4,3.84-8.39,3.84c-5.76,0-11.51-4.32-11.51-11.75v-5.04
			c0-6.6,2.76-11.27,6.72-16.67l9.35-12.71c2.4-3.24,3.72-7.08,3.72-10.79v-3.48c0-6.36-4.08-9.59-8.27-9.59
			c-4.08,0-8.15,3.24-8.15,9.59v13.31h-3.36V68.84c0-8.75,5.76-13.07,11.63-13.07c5.76,0,11.51,4.32,11.51,13.07v59.24
			L255.19,125.32z M255.07,81.19c-0.48,1.8-1.92,4.56-3.24,6.36l-7.44,10.19c-3.36,4.68-5.76,8.75-5.76,14.15v5.52
			c0,5.64,4.2,8.39,8.27,8.39c4.2,0,8.15-2.64,8.15-8.63V81.19z"/>
		<path class="st2" d="M281.45,129.16c-3,0-6.12-1.2-8.39-3.84l-3.24,2.76V31.66h3.36v28.18c1.8-2.76,5.52-4.08,8.51-4.08
			c6,0,11.27,4.44,11.27,11.87v49.77C292.96,124.84,287.21,129.16,281.45,129.16z M289.6,67.52c0-4.92-3.12-8.39-8.03-8.39
			c-5.04,0-8.39,3.6-8.39,8.39v49.65c0,6,3.96,8.63,8.15,8.63c4.08,0,8.27-2.76,8.27-8.39V67.52z"/>
		<path class="st2" d="M304.35,127.6V31.66h3.36v95.94H304.35z"/>
		<path class="st2" d="M330.61,129.16c-5.76,0-11.51-4.32-11.51-13.07V68.84c0-8.63,5.88-13.07,11.63-13.07
			c5.76,0,11.51,4.32,11.51,13.07v23.14h-19.79v24.22c0,6.36,4.08,9.59,8.15,9.59c4.2,0,8.27-3.24,8.27-9.59v-14.15h3.36v14.03
			C342.25,124.72,336.37,129.16,330.61,129.16z M338.89,68.72c0-6.36-4.08-9.59-8.27-9.59c-4.08,0-8.15,3.24-8.15,9.59v20.27h16.43
			V68.72z"/>
		<path class="st2" d="M365.15,129.16c-6.96,0-13.31-5.4-13.31-14.87V70.64c0-9.47,6.36-14.87,13.31-14.87
			c6.96,0,13.43,5.52,13.43,14.87v12.59h-6.96V70.4c0-4.92-3.12-7.43-6.48-7.43c-3.12,0-6.36,2.52-6.36,7.43v44.13
			c0,4.92,3.24,7.44,6.36,7.44c3.36,0,6.48-2.52,6.48-7.44V101.7h6.96v12.59C378.58,123.64,372.1,129.16,365.15,129.16z"/>
		<path class="st2" d="M409.28,127.6l-1.68-2.28c-2.4,2.64-5.52,3.84-8.63,3.84c-6.6,0-12.59-4.92-12.59-13.31v-4.08
			c0-6.84,3-11.63,7.08-16.91l9.35-12.11c2.16-2.88,3.36-6.12,3.36-9.23v-2.88c0-5.04-3.12-7.55-6.48-7.55
			c-3.12,0-6.36,2.52-6.36,7.55v11.75h-6.96V70.64c0-9.95,6.72-14.87,13.43-14.87c6.6,0,13.31,5.04,13.31,14.87v56.96H409.28z
			 M406.16,87.19c0,0-0.84,2.52-2.64,4.8l-6.36,8.27c-2.76,3.6-3.84,7.08-3.84,11.39v3.84c0,4.32,3.36,6.48,6.48,6.48
			c3.24,0,6.36-2.16,6.36-6.96V87.19z"/>
		<path class="st2" d="M434.46,129.16c-6.84,0-13.55-4.8-13.55-14.27V102.9h6.96v11.63c0,3.96,2.4,7.44,6.6,7.44
			c4.56,0,6.24-3.84,6.24-7.44c0-3.36-1.56-6-3.36-9.35l-12.11-21.71c-2.64-4.8-4.32-8.75-4.32-13.31c0-9.95,6.72-14.39,13.19-14.39
			c6.72,0,13.55,4.92,13.55,14.51v11.15h-6.96V70.28c0-3.96-2.4-7.44-6.6-7.44c-4.68,0-6.36,3.84-6.36,7.55
			c0,3.36,1.92,6.6,3.6,9.71l12.11,21.71c2.64,4.68,4.2,8.39,4.2,13.19C447.65,124.72,441.05,129.16,434.46,129.16z"/>
		<path class="st2" d="M471.38,127.6c-6.84,0-11.39-3-11.39-11.99V63.92h-8.15v-6.6h8.15V31.66h6.96v25.66h8.27v6.6h-8.27v51.21
			c0,4.8,2.28,5.88,5.76,5.88h2.52v6.6H471.38z"/>
	</g>
	<path class="st1" d="M137.65,76.23L54.91,26.96c-2.83-1.68-5.14-0.37-5.14,2.92v98.83c0,2.56,1.4,3.92,3.36,3.6
		c0.28-1.18,0.47-2.69,0.53-4.61V52.94c0-0.49,0.39-0.9,0.88-0.92c0.49-0.02,0.91,0.34,0.96,0.83l0,0.03l0.01,0.09
		c0.01,0.08,0.02,0.2,0.04,0.35c0.04,0.31,0.1,0.76,0.19,1.34c0.18,1.15,0.49,2.8,0.97,4.73c0.96,3.87,2.63,8.92,5.44,13.6
		c1.87,3.12,4.24,6.07,7.23,8.41c3.99,3.13,9.06,5.2,15.66,5.21c5.88,0,13-1.67,21.57-5.83c0.46-0.22,1-0.03,1.23,0.42
		c0.22,0.45,0.04,1-0.41,1.23c0,0-0.02,0.01-0.07,0.04c-0.05,0.03-0.13,0.07-0.23,0.12c-0.2,0.11-0.51,0.27-0.9,0.48
		c-0.04,0.02-0.08,0.04-0.12,0.07c-5.22,3.19-24.87,15.71-36.38,29.99c-5.07,6.3-2.66,8.99-0.37,9.92l68.31-40.68
		C140.48,80.68,140.48,77.92,137.65,76.23z M81.63,80.94c-7.64,0-13.83-6.19-13.83-13.83s6.19-13.83,13.83-13.83
		c7.64,0,13.83,6.19,13.83,13.83S89.27,80.94,81.63,80.94z"/>
</g>
<g>
	<path class="st3" d="M8.29,172.97c1.21,0,2.14,0.5,2.78,1.51c0.42,0.66,0.68,1.43,0.76,2.3h3.1c-0.05-1.96-0.68-3.59-1.9-4.87
		c-1.25-1.33-2.84-1.99-4.77-1.99c-2.56,0-4.47,1.12-5.73,3.36c-1.01,1.78-1.51,4.04-1.51,6.78c0,2.8,0.48,5.06,1.45,6.79
		c1.21,2.19,3.11,3.28,5.7,3.28c2.03,0,3.67-0.7,4.92-2.11c1.21-1.33,1.82-3.03,1.85-5.09h-3.15c-0.25,2.7-1.51,4.04-3.78,4.04
		c-1.32,0-2.28-0.82-2.89-2.47c-0.43-1.16-0.65-2.58-0.65-4.25C4.46,175.4,5.74,172.97,8.29,172.97z"/>
	<path class="st3" d="M44.04,169.92c-2.55,0-4.51,1.09-5.88,3.27c-1.15,1.83-1.73,4.12-1.73,6.85s0.58,5.01,1.73,6.85
		c1.36,2.17,3.32,3.25,5.88,3.25s4.52-1.09,5.88-3.27c1.15-1.83,1.72-4.11,1.72-6.83c0-2.73-0.57-5.01-1.72-6.85
		C48.56,171.01,46.6,169.92,44.04,169.92z M47.45,184.53c-0.72,1.6-1.86,2.4-3.41,2.4c-1.57,0-2.71-0.79-3.42-2.38
		c-0.53-1.18-0.8-2.69-0.8-4.52c0-1.83,0.27-3.34,0.8-4.52c0.72-1.59,1.86-2.39,3.42-2.39c1.55,0,2.69,0.8,3.41,2.4
		c0.53,1.19,0.8,2.69,0.8,4.51C48.26,181.84,47.99,183.34,47.45,184.53z"/>
	<polygon class="st3" points="81.41,185.07 78.48,170.25 73.71,170.25 73.71,189.53 76.95,189.53 76.95,173.93 79.79,189.53 
		83.05,189.53 85.85,173.93 85.85,189.53 89.11,189.53 89.11,170.25 84.36,170.25 	"/>
	<polygon class="st3" points="119.32,185.07 116.38,170.25 111.62,170.25 111.62,189.53 114.86,189.53 114.86,173.93 117.7,189.53 
		120.96,189.53 123.76,173.93 123.76,189.53 127.01,189.53 127.01,170.25 122.27,170.25 	"/>
	<path class="st3" d="M159.02,183.87c0,2.06-1.02,3.09-3.05,3.09c-1.99,0-2.98-1.03-2.98-3.09v-13.63h-3.25v13.3
		c0,1.9,0.58,3.47,1.73,4.7c1.18,1.26,2.72,1.89,4.61,1.89c1.95,0,3.49-0.62,4.6-1.85c1.07-1.19,1.6-2.77,1.6-4.74v-13.3h-3.25
		V183.87z"/>
	<polygon class="st3" points="194.66,183.5 188.26,170.25 185.07,170.25 185.07,189.53 188.32,189.53 188.32,176.11 194.71,189.53 
		197.92,189.53 197.92,170.25 194.66,170.25 	"/>
	<rect x="220.46" y="170.25" class="st3" width="3.25" height="19.28"/>
	<polygon class="st3" points="245.27,173.29 250.05,173.29 250.05,189.53 253.3,189.53 253.3,173.29 257.91,173.29 257.91,170.25 
		245.27,170.25 	"/>
	<polygon class="st3" points="285.43,178.55 282.24,170.25 278.62,170.25 283.83,182.39 283.83,189.53 287.07,189.53 287.07,182.39 
		292.14,170.25 288.48,170.25 	"/>
	<polygon class="st3" points="347.34,185.07 344.4,170.25 339.64,170.25 339.64,189.53 342.88,189.53 342.88,173.93 345.72,189.53 
		348.98,189.53 351.78,173.93 351.78,189.53 355.04,189.53 355.04,170.25 350.29,170.25 	"/>
	<polygon class="st3" points="381.09,180.98 388.65,180.98 388.65,177.94 381.09,177.94 381.09,173.29 389.29,173.29 389.29,170.25 
		377.83,170.25 377.83,189.53 389.66,189.53 389.66,186.48 381.09,186.48 	"/>
	<path class="st3" d="M419.43,170.25h-7.35v19.28h7.14c2.08,0,3.66-1.27,4.74-3.82c0.81-1.91,1.21-4.05,1.21-6.42
		c0-2.3-0.43-4.29-1.3-5.98C422.82,171.27,421.34,170.25,419.43,170.25z M417.82,186.48h-2.48v-13.19h2.8c1.38,0,2.38,0.74,3,2.21
		c0.44,1.04,0.66,2.39,0.66,4.03C421.8,184.16,420.47,186.48,417.82,186.48z"/>
	<rect x="447.29" y="170.25" class="st3" width="3.25" height="19.28"/>
	<path class="st3" d="M481.59,170.25h-3.73l-5.53,19.28h3.33l1.21-4.12h5.63l1.21,4.12h3.3L481.59,170.25z M477.78,182.36l1.95-7.48
		l2.09,7.48H477.78z"/>
</g>
</svg>
